<?xml version="1.0" standalone="no"?>
<!DOCTYPE svg PUBLIC "-//W3C//DTD SVG 20010904//EN"
 "http://www.w3.org/TR/2001/REC-SVG-20010904/DTD/svg10.dtd">
<svg version="1.0" xmlns="http://www.w3.org/2000/svg"
 viewBox="0 0 2600.000000 2600.000000"
 preserveAspectRatio="xMidYMid meet">
<metadata>
Created by potrace 1.15, written by Peter Selinger 2001-2017
</metadata>
<g transform="translate(0.000000,2600.000000) scale(0.100000,-0.100000)"
fill="#000000" stroke="none">
<path d="M17610 20269 c-751 -10 -1454 -29 -3065 -84 -396 -13 -882 -30 -1080
-36 -230 -8 -1121 -12 -2465 -14 -1367 -1 -2219 -6 -2430 -13 -600 -22 -1015
-43 -1065 -54 -166 -36 -294 -171 -326 -342 -16 -87 -5 -136 88 -411 279 -821
306 -941 301 -1305 l-3 -205 28 -60 c15 -32 39 -74 54 -93 25 -33 25 -37 19
-141 -49 -773 -186 -1649 -511 -3261 -252 -1250 -327 -1660 -435 -2397 -98
-661 -124 -822 -319 -1944 -150 -862 -232 -1367 -295 -1809 -157 -1102 -222
-2019 -197 -2774 13 -384 20 -422 95 -523 114 -156 297 -205 506 -136 304 100
692 59 1685 -177 452 -108 489 -115 1165 -230 1722 -293 1684 -285 2180 -445
576 -186 811 -236 1116 -237 169 0 225 13 316 75 73 50 140 141 162 220 8 29
27 156 41 282 225 1999 709 3894 1350 5289 l69 149 93 -454 c465 -2269 857
-3829 1300 -5174 82 -247 110 -297 210 -366 163 -113 371 -93 538 51 258 223
683 389 1315 514 175 35 340 62 935 157 417 66 571 96 915 179 413 100 641
141 1345 245 1101 162 1577 273 2090 488 139 58 185 87 248 157 69 77 91 142
92 270 0 97 -2 110 -31 171 -18 37 -57 93 -91 130 -77 83 -116 141 -163 242
-121 265 -208 686 -254 1237 -14 164 -21 279 -46 768 -44 852 -141 1519 -460
3172 -143 742 -198 1047 -295 1655 -183 1144 -289 1726 -426 2345 -225 1013
-516 1895 -830 2523 l-49 97 25 50 c34 67 71 216 85 341 13 114 7 266 -16 444
-9 65 -18 239 -21 423 -6 303 -5 315 15 350 26 48 52 148 52 203 0 137 -92
291 -214 363 -76 45 -136 54 -386 60 -129 4 -343 11 -475 16 -622 26 -1500 33
-2485 19z m2200 -849 c201 -6 383 -13 406 -16 l41 -5 6 -212 c3 -117 13 -288
22 -380 10 -93 15 -170 14 -172 -2 -2 -166 -9 -364 -17 -240 -9 -715 -13
-1430 -13 -1181 1 -1678 11 -3150 67 -479 19 -734 23 -1460 23 -1007 0 -1329
-10 -2825 -87 -582 -30 -659 -32 -1430 -33 -580 0 -847 -4 -925 -13 -134 -15
-311 -41 -329 -48 -9 -4 -17 13 -25 58 -24 124 -90 376 -140 528 -27 85 -48
156 -45 159 2 2 102 8 222 12 611 22 1373 29 2917 29 1776 -1 1898 1 3340 50
1430 49 2163 69 3060 84 352 6 1736 -3 2095 -14z m-4160 -1230 c396 -49 612
-266 613 -615 0 -257 -114 -437 -329 -517 -51 -19 -78 -22 -204 -21 -122 0
-160 4 -240 25 -200 54 -420 150 -632 277 -65 38 -118 68 -118 66 0 -10 383
-687 448 -790 108 -174 204 -298 303 -396 69 -68 90 -95 99 -130 23 -84 -12
-180 -81 -226 -56 -37 -149 -44 -205 -15 -94 49 -247 217 -382 420 -104 155
-147 229 -359 607 -195 348 -205 365 -213 365 -14 -1 -338 -489 -465 -700
-133 -222 -275 -502 -324 -636 -41 -114 -70 -158 -124 -186 -136 -71 -297 25
-297 177 0 150 240 633 555 1120 95 147 91 140 74 130 -8 -5 -93 -59 -189
-120 -721 -459 -1061 -560 -1264 -374 -120 110 -138 286 -54 529 46 132 159
357 225 445 182 244 422 373 756 406 140 13 278 8 547 -23 245 -28 389 -29
453 -5 35 14 62 17 105 13 91 -9 95 -9 127 2 17 6 59 18 95 27 36 8 133 33
217 55 330 84 641 117 863 90z"/>
<path d="M15330 17779 c-118 -12 -311 -49 -305 -59 9 -14 199 -118 291 -158
275 -121 484 -154 522 -82 8 16 12 54 10 107 -3 75 -5 84 -32 112 -71 74 -251
104 -486 80z"/>
<path d="M13272 17619 c-257 -25 -414 -134 -532 -369 -40 -81 -84 -189 -95
-233 l-7 -28 63 24 c170 64 476 238 814 460 216 143 215 131 11 147 -140 11
-134 11 -254 -1z"/>
</g>
</svg>
